<?xml version="1.0" encoding="utf-8"?>
<svg viewBox="0 0 744 283" xmlns="http://www.w3.org/2000/svg" xmlns:bx="https://boxy-svg.com">
  <defs>
    <linearGradient id="linear-gradient" x1="277.27" y1="-250.89" x2="600.85" y2="750.69" gradientUnits="userSpaceOnUse" gradientTransform="matrix(0.232957, 0, 0, 0.232957, -37.436743, 1.211151)">
      <stop offset="0.06" stop-color="#fff1a9"/>
      <stop offset="0.16" stop-color="#feeca8"/>
      <stop offset="0.29" stop-color="#fadca4"/>
      <stop offset="0.43" stop-color="#f3c39d"/>
      <stop offset="0.58" stop-color="#eaa095"/>
      <stop offset="0.74" stop-color="#de7389"/>
      <stop offset="0.9" stop-color="#d03c7c"/>
      <stop offset="0.94" stop-color="#cc2e78"/>
    </linearGradient>
    <style bx:fonts="Nobile">@import url(https://fonts.googleapis.com/css2?family=Nobile%3Aital%2Cwght%400%2C400%3B0%2C500%3B0%2C700%3B1%2C400%3B1%2C500%3B1%2C700&amp;display=swap);</style>
  </defs>
  <path d="M 191.711 147.454 C 190.217 132.312 188.796 120.664 187.105 112.045 C 184.899 100.774 181.672 90.345 173.088 90.345 C 161.056 90.345 157.378 114.6 150.643 178.794 C 148.651 197.792 146.589 217.437 144.145 232.577 C 141.725 247.553 139.538 254.048 138.175 256.844 C 136.668 253.037 134.198 243.449 131.524 219.352 C 129.041 196.988 126.96 167.901 124.948 139.778 C 122.774 109.413 120.521 78.012 117.756 54.78 C 113.894 22.398 110.183 11.997 102.491 11.997 C 94.931 11.997 91.076 21.828 87.23 50.954 C 84.455 71.937 82.207 100.281 80.034 127.69 C 78.028 152.985 75.952 179.141 73.48 199.28 C 70.741 221.6 68.248 230.03 66.797 233.22 C 65.499 230.957 63.303 225.374 60.812 211.697 C 58.376 198.26 56.319 180.821 54.329 163.955 C 47.701 107.786 43.816 84.908 31.891 84.908 C 20.825 84.908 16.749 105.979 10.787 172.287 C 1.096 173.803 -3.321 185.242 2.838 192.877 C 8.996 200.512 21.111 198.618 24.644 189.466 C 26.722 184.083 24.924 177.975 20.259 174.577 C 21.89 156.218 23.665 137.861 25.766 123.227 C 28.396 104.909 30.819 98.084 32.128 95.57 C 33.403 97.65 35.683 103.12 38.267 117.356 C 40.704 130.779 42.763 148.221 44.752 165.084 C 51.38 221.255 55.266 244.131 67.191 244.131 C 74.748 244.131 78.606 234.303 82.449 205.176 C 85.224 184.192 87.472 155.85 89.645 128.44 C 91.653 103.146 93.727 76.989 96.198 56.85 C 98.642 36.926 100.892 28.064 102.379 24.127 C 103.902 28.381 106.236 38.207 108.752 60.883 C 111.236 83.247 113.316 112.331 115.329 140.454 C 117.502 170.822 119.755 202.222 122.52 225.455 C 126.385 257.836 130.094 268.238 137.788 268.238 C 149.82 268.238 153.499 243.982 160.234 179.786 C 162.225 160.789 164.287 141.144 166.731 126.006 C 169.601 108.231 172.149 102.405 173.374 100.525 C 174.334 101.837 176.272 105.75 178.246 117.163 C 179.611 125.062 180.808 135.084 182.055 147.757 C 173.094 151.758 171.826 163.959 179.771 169.718 C 187.716 175.477 198.916 170.475 199.931 160.715 C 200.532 154.938 197.152 149.486 191.711 147.454 Z" style="fill:url(#linear-gradient)"/>
  <text style="fill: rgb(204, 46, 120); font-family: Nobile; font-size: 25.1px; white-space: pre;" transform="matrix(3.901642084121704, 0, 0, 3.8663129806518555, -810.2227172851562, -546.5509643554688)" x="263.414" y="188.467">Sci-Sonify</text>
</svg>