<?xml version="1.0" standalone="no"?>
<!DOCTYPE svg PUBLIC "-//W3C//DTD SVG 1.1//EN" "http://www.w3.org/Graphics/SVG/1.1/DTD/svg11.dtd">
<!--Generator: Xara Designer (www.xara.com), SVG filter version: 6.6.0.9-->
<svg fill="none" fill-rule="evenodd" stroke="black" stroke-width="0.501" stroke-linejoin="bevel" stroke-miterlimit="10" font-family="Times New Roman" font-size="16" style="font-variant-ligatures:none" xmlns:xlink="http://www.w3.org/1999/xlink" xmlns="http://www.w3.org/2000/svg" version="1.1" overflow="visible" width="600pt" height="228.225pt" viewBox="0 -228.225 600 228.225">
 <defs>
  <linearGradient id="LinearGradient" gradientUnits="userSpaceOnUse" x1="0" y1="0" x2="60.79" y2="-188.165" gradientTransform="translate(21.899 274.382)">
   <stop offset="0" stop-color="#fff1a9"/>
   <stop offset="6.00000023841858E-02" stop-color="#fff1a9"/>
   <stop offset="0.159999996423721" stop-color="#fff1a9"/>
   <stop offset="0.290000021457672" stop-color="#fadca4"/>
   <stop offset="0.430000007152557" stop-color="#f3c39d"/>
   <stop offset="0.579999983310699" stop-color="#eaa095"/>
   <stop offset="0.740000009536743" stop-color="#de7389"/>
   <stop offset="0.900000035762787" stop-color="#d03c7c"/>
   <stop offset="0.940000057220459" stop-color="#cc2e78"/>
   <stop offset="1" stop-color="#cc2e78"/>
  </linearGradient>
  <style type="text/css">@import url('https://themes.googleusercontent.com/fonts/css?family=Nobile:400');</style>
 </defs>
 <g id="Layer 1" transform="scale(1 -1)">
  <path d="M 154.605,109.31 C 153.4,121.521 152.254,130.915 150.891,137.866 C 149.112,146.955 146.509,155.366 139.587,155.366 C 129.883,155.366 126.917,135.805 121.486,84.036 C 119.879,68.715 118.216,52.872 116.245,40.662 C 114.294,28.585 112.53,23.347 111.431,21.092 C 110.216,24.162 108.224,31.895 106.067,51.328 C 104.065,69.363 102.387,92.82 100.764,115.5 C 99.011,139.988 97.194,165.312 94.964,184.047 C 91.85,210.162 88.857,218.55 82.654,218.55 C 76.557,218.55 73.448,210.621 70.346,187.133 C 68.108,170.211 66.295,147.353 64.543,125.249 C 62.925,104.849 61.251,83.756 59.258,67.515 C 57.049,49.515 55.038,42.716 53.868,40.144 C 52.821,41.969 51.05,46.471 49.041,57.501 C 47.077,68.337 45.418,82.401 43.813,96.003 C 38.468,141.3 35.335,159.75 25.718,159.75 C 16.794,159.75 13.507,142.758 8.699,89.283 C 0.883,88.061 -2.678,78.836 2.288,72.679 C 7.254,66.521 17.025,68.049 19.874,75.429 C 21.55,79.77 20.1,84.696 16.337,87.437 C 17.653,102.242 19.084,117.046 20.779,128.848 C 22.9,143.62 24.854,149.125 25.909,151.152 C 26.937,149.475 28.776,145.063 30.86,133.583 C 32.825,122.758 34.486,108.691 36.09,95.092 C 41.435,49.793 44.569,31.345 54.186,31.345 C 60.28,31.345 63.391,39.27 66.491,62.76 C 68.729,79.683 70.541,102.539 72.294,124.644 C 73.913,145.042 75.586,166.137 77.579,182.378 C 79.55,198.445 81.364,205.592 82.563,208.767 C 83.791,205.337 85.674,197.412 87.703,179.125 C 89.706,161.09 91.383,137.635 93.007,114.955 C 94.759,90.465 96.576,65.142 98.806,46.406 C 101.923,20.292 104.914,11.904 111.119,11.904 C 120.822,11.904 123.789,31.465 129.22,83.236 C 130.826,98.556 132.489,114.399 134.46,126.607 C 136.775,140.941 138.829,145.64 139.817,147.156 C 140.591,146.098 142.154,142.942 143.746,133.738 C 144.847,127.368 145.812,119.286 146.818,109.066 C 139.591,105.839 138.569,96 144.976,91.355 C 151.383,86.711 160.416,90.745 161.234,98.616 C 161.719,103.274 158.993,107.671 154.605,109.31 Z" stroke-linejoin="miter" fill-rule="nonzero" stroke-width="0.806" stroke="none" marker-start="none" marker-end="none" fill="url(#LinearGradient)"/>
  <text xml:space="preserve" transform="translate(174.55 80.764) scale(1 -1) scale(1.00914 1)" kerning="0" fill="#cc2e78" style="-moz-font-feature-settings:'liga' on;-ms-font-feature-settings:'liga' on;-webkit-font-feature-settings:'liga' on;font-feature-settings:'liga' on;font-variant-ligatures: common-ligatures no-discretionary-ligatures no-historical-ligatures" font-size="78.26" font-family="Nobile" stroke-linejoin="miter" fill-rule="nonzero" stroke-width="3.146" stroke="none"><tspan x="0" y="0">Sci-Sonify</tspan></text>
 </g>
</svg>
